<?xml version="1.0" encoding="iso-8859-1"?>
<!-- Uploaded to: SVG Repo, www.svgrepo.com, Generator: SVG Repo Mixer Tools -->
<svg fill="#000000" version="1.1" id="Layer_1" xmlns="http://www.w3.org/2000/svg" xmlns:xlink="http://www.w3.org/1999/xlink" 
	 viewBox="0 0 214.305 214.305" xml:space="preserve">
<g>
	<g>
		<g>
			<path d="M199.558,36.948H14.747C6.614,36.948,0,43.591,0,51.755v110.794c0,8.164,6.614,14.807,14.747,14.807h184.811
				c8.133,0,14.747-6.643,14.747-14.807V51.755C214.305,43.591,207.691,36.948,199.558,36.948z M206.915,162.549
				c0,4.09-3.302,7.417-7.357,7.417H14.747c-4.056,0-7.357-3.327-7.357-7.417V51.755c0-4.09,3.302-7.417,7.357-7.417h184.811
				c4.056,0,7.357,3.327,7.357,7.417V162.549z"/>
			<path d="M151.492,51.728H18.475c-2.042,0-3.695,1.655-3.695,3.695v103.458c0,2.04,1.653,3.695,3.695,3.695h133.017
				c2.042,0,3.695-1.655,3.695-3.695V55.424C155.186,53.382,153.534,51.728,151.492,51.728z M22.169,155.185V59.119h125.627v96.067
				H22.169z"/>
			<path d="M177.356,121.931c-10.186,0-18.475,8.288-18.475,18.475s8.288,18.475,18.475,18.475c10.186,0,18.475-8.288,18.475-18.475
				S187.542,121.931,177.356,121.931z M166.271,140.406c0-6.113,4.972-11.085,11.085-11.085c1.706,0,3.304,0.419,4.749,1.11
				l-14.723,14.724C166.691,143.71,166.271,142.111,166.271,140.406z M177.356,151.492c-1.706,0-3.304-0.419-4.749-1.11
				l14.723-14.724c0.691,1.445,1.111,3.044,1.111,4.749C188.441,146.518,183.468,151.492,177.356,151.492z"/>
			
				<rect x="174.52" y="85.974" transform="matrix(0.7071 0.7071 -0.7071 0.7071 122.1345 -97.0481)" width="7.389" height="25.863"/>
			
				<rect x="174.52" y="60.109" transform="matrix(0.7071 0.7071 -0.7071 0.7071 103.8441 -104.6235)" width="7.389" height="25.863"/>
		</g>
	</g>
</g>
</svg>